<?xml version="1.0" encoding="UTF-8"?>
<svg width="177px" height="39px" viewBox="0 0 177 39" version="1.1" xmlns="http://www.w3.org/2000/svg" xmlns:xlink="http://www.w3.org/1999/xlink">
    <!-- Generator: Sketch 47.1 (45422) - http://www.bohemiancoding.com/sketch -->
    <title>final-dashlane-logo-teal</title>
    <desc>Created with Sketch.</desc>
    <defs></defs>
    <g id="Page-1" stroke="none" stroke-width="1" fill="none" fill-rule="evenodd">
        <g id="Dev_test" transform="translate(-90.000000, -34.000000)" fill-rule="nonzero" fill="#FFFFFF">
            <g id="Sidebar">
                <g id="final-dashlane-logo-teal" transform="translate(62.000000, 12.000000)">
                    <g id="artwork" transform="translate(28.000000, 22.000000)">
                        <g id="Group">
                            <path d="M24.3375,16.2882353 C23.5167339,15.7058824 22.9814516,14.7 22.9814516,13.6058824 C22.9814516,13.2705882 23.159879,12.6352941 23.2847782,12.2117647 C23.3383065,12 23.3561492,11.8941176 23.5881048,11.8588235 C24.7478831,11.6294118 25.2474798,11.6647059 25.3366935,11.5235294 C25.6400202,11.0117647 25.7827621,10.3235294 25.7827621,10.3235294 L16.8792339,7.51764706 C16.8792339,7.51764706 17.4323589,8.94705882 17.7356855,9.07058824 L21.7859879,10.8529412 C21.7859879,10.8529412 19.6983871,11.3117647 18.5564516,11.6470588 L18.2888105,11.7352941 C18.2888105,11.7352941 18.734879,12.4764706 19.4129032,12.8823529 C20.1622984,12.6705882 21.5540323,12.3176471 21.5540323,12.3176471 C19.6091734,16.1117647 15.5945565,18.6 11.2230847,18.6 C11.0268145,18.6 10.1882056,18.5823529 9.67076613,18.6352941 C9.22469758,18.6705882 8.99274194,19.0411765 9.43881048,19.2352941 C10.2417339,19.6588235 10.8127016,20.3647059 11.0625,21.1941176 C11.2230847,21.7058824 10.9376008,22.0235294 10.580746,22.3058824 C9.79566532,22.9058824 7.79727823,24.3882353 5.83457661,25.8352941 C5.60262097,25.4117647 5.38850806,24.9705882 5.1922379,24.5294118 C3.42580645,20.5588235 2.5515121,15.0529412 2.5515121,7.67647059 L2.5515121,7.58823529 L17.9141129,2.7 L33.2767137,7.57058824 L33.2767137,7.64117647 C33.2767137,10.3235294 33.1518145,12.7941176 32.9198589,15 L32.9020161,15.1941176 L35.4178427,15.1941176 L35.4356855,15.0352941 C35.6676411,12.7941176 35.7746976,10.3058824 35.7746976,7.64117647 L35.7746976,5.77058824 L17.8962702,0.105882353 L0.0178427419,5.78823529 L0.0178427419,7.65882353 C0.0178427419,15.3882353 0.945665323,21.2294118 2.87268145,25.5176471 C3.14032258,26.1176471 3.44364919,26.7352941 3.78266129,27.3176471 C2.2125,28.4647059 1.01703629,29.3470588 1.01703629,29.3470588 C1.37389113,29.9647059 1.78427419,30.5647059 1.78427419,30.5647059 L11.615625,23.6117647 C16.9149194,20.0823529 23.0885081,18.2294118 29.4940524,18.2294118 L32.4737903,18.2294118 C32.0455645,20.6470588 31.4210685,22.7647059 30.6359879,24.5294118 C29.7438508,26.5411765 28.5305444,28.3941176 27.0495968,30.0352941 C25.8541331,31.3588235 24.4802419,32.5764706 22.9636089,33.6176471 C20.3764113,35.4 18.1639113,36.1588235 17.9141129,36.2470588 L17.8962702,36.2470588 L17.8427419,36.2294118 C17.5929435,36.1411765 15.3982863,35.4 12.8110887,33.6176471 C11.2944556,32.5764706 9.92056452,31.3588235 8.72510081,30.0352941 C8.35040323,29.6117647 7.97570565,29.1529412 7.58316532,28.6235294 L7.47610887,28.4823529 L5.44203629,29.9294118 L5.54909274,30.0705882 C5.99516129,30.6705882 6.4233871,31.2 6.8516129,31.6764706 C8.17197581,33.1588235 9.68860887,34.5 11.3836694,35.6470588 C14.2028226,37.5882353 16.6115927,38.4352941 17.0576613,38.5764706 C17.075504,38.5764706 17.5215726,38.7352941 17.7356855,38.8058824 C17.7892137,38.8235294 17.8605847,38.8411765 17.8605847,38.8411765 L17.8962702,38.8411765 L17.9319556,38.8411765 C17.9319556,38.8411765 17.9854839,38.8235294 18.0568548,38.8058824 C18.2709677,38.7352941 18.7170363,38.5941176 18.734879,38.5764706 C19.1809476,38.4352941 21.571875,37.5882353 24.3910282,35.6470588 C26.068246,34.4823529 27.6027218,33.1411765 28.9230847,31.6764706 C30.5646169,29.8411765 31.9206653,27.7588235 32.9198589,25.5352941 C33.8476815,23.4529412 34.5435484,21.0529412 35.0074597,18.2294118 L37.1485887,18.2294118 C37.2378024,17.7 37.3805444,16.8176471 37.3805444,16.8176471 L29.4940524,16.8176471 C26.1396169,16.7294118 25.1582661,16.8529412 24.3375,16.2882353 Z" id="Shape"></path>
                            <rect id="Rectangle-path" x="117.333871" y="5.77058824" width="2.72993952" height="27.3705882"></rect>
                            <path d="M92.0863911,23.5941176 L92.0507056,23.5764706 C90.9622984,22.9588235 90.1415323,22.6941176 89.1780242,22.3941176 C88.5535282,22.2 87.8398185,21.9705882 86.911996,21.5823529 C85.7522177,21.1058824 85.3953629,20.8411765 85.0741935,20.5235294 C84.9136089,20.3470588 84.6102823,20.0294118 84.5032258,19.5352941 C84.3783266,18.9882353 84.5389113,18.5117647 84.6816532,18.2117647 C85.0920363,17.4 85.9484879,17.0647059 86.358871,16.8882353 C86.5908266,16.8 87.2153226,16.5705882 88.1788306,16.5705882 L88.2145161,16.5705882 C90.0523185,16.5705882 91.5689516,17.3470588 92.5146169,18 L92.6573589,18.1058824 L94.2275202,15.9352941 L94.0847782,15.8294118 C92.8179435,14.9647059 90.7660282,13.9235294 88.2145161,13.9235294 L88.1609879,13.9235294 C86.769254,13.9235294 85.7700605,14.2588235 85.3061492,14.4352941 C84.699496,14.6823529 83.0936492,15.3352941 82.2371976,17.0294118 C81.7376008,18.0176471 81.5948589,19.1294118 81.8446573,20.1529412 C82.1301411,21.3 82.7546371,22.0235294 83.0044355,22.2882353 C83.6467742,22.9764706 84.4318548,23.4529412 85.8414315,24.0352941 C86.8763105,24.4588235 87.6435484,24.7058824 88.3394153,24.9352941 C89.2137097,25.2176471 89.8382056,25.4117647 90.6946573,25.8882353 L90.7303427,25.9058824 C90.9979839,26.0647059 91.4262097,26.2941176 91.7652218,26.6647059 C92.4967742,27.4764706 92.3183468,28.5529412 92.1577621,29.0470588 C92.1042339,29.1882353 91.9079637,29.7 91.336996,30.1588235 C90.2485887,31.0235294 88.6605847,31.2352941 87.3759073,31.1117647 C85.2347782,30.8823529 83.2363911,29.6294118 82.5226815,29.1176471 L82.3799395,29.0117647 L80.7205645,31.0588235 L80.8633065,31.1647059 C81.3272177,31.5176471 82.5048387,32.2941176 83.7538306,32.8058824 C84.9492944,33.3 86.216129,33.5647059 86.769254,33.6176471 C87.1974798,33.6529412 87.6970766,33.7058824 88.2145161,33.7058824 C88.9460685,33.7058824 89.9987903,33.6176471 90.6589718,33.4235294 C91.1228831,33.3 92.0863911,33.0176471 93.0677419,32.2235294 C94.0847782,31.3941176 94.5486895,30.4411765 94.7092742,30.0705882 C95.5835685,27.9705882 94.8341734,26.0117647 93.7814516,24.9176471 C93.1391129,24.2117647 92.4610887,23.8058824 92.0863911,23.5941176 Z" id="Shape"></path>
                            <path d="M107.359778,13.9235294 L107.359778,13.9235294 C105.254335,13.7470588 103.541431,14.5764706 102.899093,14.9470588 C102.221069,15.3352941 101.543044,15.7941176 100.66875,16.5176471 L100.66875,5.77058824 L97.9566532,5.77058824 L97.9566532,33.1411765 L100.686593,33.1411765 L100.686593,20.0470588 C101.471673,19.1823529 102.809879,17.9647059 104.112399,17.3647059 C105.004536,16.9411765 105.950202,16.5 107.163508,16.6058824 C108.234073,16.6941176 109.036996,17.0117647 109.554435,17.5764706 C109.839919,17.8764706 110.303831,18.3705882 110.303831,20.1882353 L110.303831,33.1411765 L113.03377,33.1411765 L113.03377,20.1882353 C113.03377,17.2941176 112.034577,16.2352941 111.552823,15.7235294 C110.839113,15 109.572278,14.1176471 107.359778,13.9235294 Z" id="Shape"></path>
                            <path d="M151.859577,13.9235294 C149.754133,13.7470588 148.04123,14.5764706 147.398891,14.9470588 C146.703024,15.3352941 146.025,15.8117647 145.132863,16.5529412 L144.972278,15 L142.438609,15 L142.438609,33.1588235 L145.168548,33.1588235 L145.168548,20.0647059 C145.953629,19.2 147.291835,17.9823529 148.594355,17.3823529 C149.486492,16.9588235 150.432157,16.5176471 151.645464,16.6235294 C152.716028,16.7117647 153.518952,17.0294118 154.036391,17.5941176 C154.321875,17.8941176 154.785786,18.3882353 154.785786,20.2058824 L154.785786,33.1588235 L157.515726,33.1588235 L157.515726,20.2058824 C157.515726,17.3117647 156.516532,16.2529412 156.034778,15.7411765 C155.338911,15.0176471 154.072077,14.1176471 151.859577,13.9235294 Z" id="Shape"></path>
                            <path d="M176.964315,23.3470588 C176.964315,21.8823529 176.892944,20.5588235 176.589617,19.5176471 C176.09002,17.7882353 174.894556,16.1117647 173.502823,15.1411765 C172.628528,14.5411765 171.807762,14.3294118 171.379536,14.2235294 L171.308165,14.2058824 C170.844254,14.0823529 169.862903,13.8882353 168.66744,13.9588235 C167.525504,14.0294118 166.633367,14.2941176 166.205141,14.4529412 C165.009677,14.8941176 164.24244,15.5294118 163.867742,15.8294118 C163.154032,16.4117647 162.511694,17.1176471 162.047782,17.8764706 C161.423286,18.8647059 161.155645,19.6058824 160.92369,20.5058824 C160.834476,20.8235294 160.584677,21.7588235 160.513306,23.2411765 C160.459778,24.4058824 160.513306,25.3941176 160.691734,26.2764706 C160.816633,26.9647059 161.012903,28.0058824 161.70877,29.1882353 C162.529536,30.5823529 163.421673,31.3764706 163.885585,31.7294118 C164.403024,32.1352941 165.527117,32.8764706 167.097278,33.3176471 C167.864516,33.5294118 168.649597,33.6352941 169.506048,33.6352941 C169.880746,33.6352941 170.219758,33.6176471 170.487399,33.6 C171.807762,33.5294118 172.824798,33.2470588 173.306552,33.0882353 C174.305746,32.7705882 175.233569,32.2941176 176.072177,31.6941176 L176.214919,31.5882353 L174.609073,29.4352941 L174.466331,29.5411765 C174.163004,29.7705882 173.395766,30.2117647 172.557157,30.5117647 C171.736391,30.8117647 170.808569,30.9882353 170.291129,31.0235294 C169.595262,31.0588235 168.828024,31.0235294 167.864516,30.7588235 C166.740423,30.4411765 165.955343,29.9117647 165.580645,29.6294118 C165.330847,29.4352941 164.688508,28.8705882 164.081855,27.8470588 C163.617944,27.0529412 163.475202,26.3470588 163.368145,25.7823529 C163.296774,25.4294118 163.261089,25.0588235 163.243246,24.6529412 L176.982157,24.6529412 L176.982157,23.3470588 L176.964315,23.3470588 Z M163.350302,22.0235294 C163.421673,21.6 163.493044,21.3176471 163.52873,21.1941176 L163.546573,21.1588235 C163.725,20.4705882 163.903427,19.9941176 164.349496,19.2705882 C164.670665,18.7588235 165.098891,18.2823529 165.598488,17.8764706 C165.901815,17.6294118 166.383569,17.2235294 167.168649,16.9411765 C167.382762,16.8529412 167.989415,16.6588235 168.810181,16.6058824 C169.630948,16.5529412 170.273286,16.6941176 170.594456,16.7647059 L170.665827,16.7823529 C171.004839,16.8705882 171.450907,16.9764706 171.914819,17.3117647 C172.824798,17.9294118 173.609879,19.0941176 173.966734,20.2588235 C174.07379,20.6117647 174.145161,21.1764706 174.180847,22.0235294 L163.350302,22.0235294 Z" id="Shape"></path>
                            <path d="M74.600504,14.5235294 L74.600504,14.5235294 C73.494254,14.1176471 72.4236895,13.9058824 71.1568548,13.9058824 C68.3733871,13.9058824 65.9110887,14.9470588 64.1625,16.7823529 L64.0376008,16.9058824 L65.9467742,18.6352941 L66.1430444,18.4411765 C66.7675403,17.8411765 67.9273185,17.0294118 68.9265121,16.7823529 C69.6045363,16.6235294 70.246875,16.5352941 71.0497984,16.5352941 C71.9954637,16.5352941 72.7091734,16.6411765 73.5120968,16.9411765 C75.4391129,17.6647059 75.7245968,19.3058824 75.7424395,20.6470588 L75.7424395,20.7882353 C74.4220766,20.9647059 73.1195565,21.1941176 71.8884073,21.4588235 C69.1763105,22.0411765 67.9808468,22.5176471 66.999496,23.0470588 C65.1616935,24.0176471 64.5015121,24.9352941 64.1625,25.5176471 C63.7878024,26.1705882 63.3774194,27.2294118 63.4844758,28.6764706 C63.5201613,29.0823529 63.5915323,30.0176471 64.2160282,31.0588235 C64.4658266,31.4823529 65.2152218,32.4529412 66.6247984,33.0882353 C67.4277218,33.4588235 68.2663306,33.6352941 69.1941532,33.6352941 C71.7278226,33.6352941 73.6905242,32.7176471 74.3685484,32.3470588 C74.9395161,32.0470588 75.3677419,31.7470588 75.7959677,31.4470588 L75.9565524,33.1235294 L78.4902218,33.1235294 L78.4902218,20.6294118 C78.4545363,19.1294118 78.4545363,15.9352941 74.600504,14.5235294 Z M75.7245968,28.5176471 C75.1179435,29.0470588 74.3328629,29.4882353 73.7618952,29.8058824 C73.2087702,30.1058824 71.9240927,30.7411765 70.4609879,30.9882353 C69.5331653,31.1470588 68.6053427,31.1647059 67.7488911,30.7764706 C66.999496,30.4235294 66.6247984,29.8588235 66.5177419,29.7 C66.2144153,29.2058824 66.1787298,28.7470588 66.1608871,28.5 C66.1073589,27.8823529 66.2322581,27.3352941 66.4820565,26.8764706 C66.5891129,26.7 66.8924395,26.1529412 68.2484879,25.4294118 C68.9265121,25.0764706 69.8900202,24.6529412 72.4236895,24.1058824 C73.4764113,23.8764706 74.5826613,23.6823529 75.6889113,23.5235294 L75.6889113,28.5176471 L75.7245968,28.5176471 Z" id="Shape"></path>
                            <path d="M57.6677419,15.3352941 C57.3644153,15.0529412 56.9183468,14.7529412 56.5079637,14.5764706 L56.4365927,14.5411765 C55.936996,14.3294118 54.7772177,13.8352941 52.9215726,13.9058824 C51.5833669,13.9588235 50.2273185,14.3117647 48.9961694,14.9470588 C46.4446573,16.2529412 45.3027218,18.3176471 44.8388105,19.4294118 C44.1251008,21.1941176 43.9823589,22.8529412 44.0002016,23.9470588 L44.0002016,24 C44.0180444,24.9 44.0358871,26.4176471 44.8209677,28.2352941 C45.3919355,29.5588235 46.0699597,30.6352941 47.1583669,31.5882353 C48.3716734,32.6470588 50.4592742,33.7235294 53.1,33.6529412 C55.0983871,33.6 56.6685484,32.7176471 57.6677419,31.6058824 L57.8283266,33.1411765 L60.361996,33.1411765 L60.361996,5.77058824 L57.6320565,5.77058824 L57.6320565,15.3352941 L57.6677419,15.3352941 Z M57.6677419,28.2705882 C57.4893145,28.5529412 56.9183468,29.2411765 56.1867944,29.8764706 C55.4195565,30.5294118 54.4025202,30.9352941 53.8315524,31.0411765 C53.2605847,31.1294118 52.1186492,31.1470588 51.0837702,30.8117647 C50.6377016,30.6705882 49.6741935,30.1764706 48.9069556,29.4705882 C48.0861895,28.7294118 47.5865927,27.8294118 47.3724798,27.2647059 C46.8371976,25.9235294 46.7836694,24.7058824 46.7658266,23.9470588 L46.7658266,23.8941176 C46.7479839,23.0470588 46.8550403,21.7764706 47.3903226,20.4352941 C47.640121,19.8176471 48.4430444,18.2647059 50.263004,17.3294118 C51.1372984,16.8882353 52.1008065,16.6235294 53.028629,16.5882353 C53.1178427,16.5882353 53.1892137,16.5882353 53.2605847,16.5882353 C54.3489919,16.5882353 55.0091734,16.8705882 55.3481855,17.0117647 L55.4373992,17.0470588 C56.2938508,17.4 57.0254032,17.9294118 57.6498992,18.6352941 L57.6498992,28.2705882 L57.6677419,28.2705882 Z" id="Shape"></path>
                            <path d="M134.302319,14.5235294 L134.302319,14.5235294 C133.196069,14.1176471 132.125504,13.9058824 130.858669,13.9058824 C128.075202,13.9058824 125.612903,14.9470588 123.864315,16.7823529 L123.739415,16.9058824 L125.648589,18.6352941 L125.844859,18.4411765 C126.469355,17.8411765 127.629133,17.0294118 128.628327,16.7823529 C129.306351,16.6235294 129.94869,16.5352941 130.751613,16.5352941 C131.697278,16.5352941 132.410988,16.6411765 133.213911,16.9411765 C135.140927,17.6647059 135.426411,19.3058824 135.444254,20.6470588 L135.444254,20.7882353 C134.123891,20.9647059 132.821371,21.1941176 131.590222,21.4588235 C128.878125,22.0411765 127.682661,22.5176471 126.70131,23.0470588 C124.863508,24.0176471 124.203327,24.9352941 123.864315,25.5176471 C123.489617,26.1705882 123.079234,27.2294118 123.18629,28.6764706 C123.221976,29.0823529 123.293347,30.0176471 123.917843,31.0588235 C124.167641,31.4823529 124.917036,32.4529412 126.326613,33.0882353 C127.129536,33.4588235 127.968145,33.6352941 128.895968,33.6352941 C131.429637,33.6352941 133.392339,32.7176471 134.070363,32.3470588 C134.641331,32.0470588 135.069556,31.7470588 135.497782,31.4470588 L135.658367,33.1235294 L138.192036,33.1235294 L138.192036,20.6294118 C138.156351,19.1294118 138.156351,15.9352941 134.302319,14.5235294 Z M135.444254,28.5176471 C134.837601,29.0470588 134.05252,29.4882353 133.481552,29.8058824 C132.928427,30.1058824 131.64375,30.7411765 130.180645,30.9882353 C129.252823,31.1470588 128.325,31.1647059 127.468548,30.7764706 C126.719153,30.4235294 126.344456,29.8588235 126.237399,29.7 C125.934073,29.2058824 125.898387,28.7470588 125.880544,28.5 C125.827016,27.8823529 125.951915,27.3352941 126.201714,26.8764706 C126.30877,26.7 126.612097,26.1529412 127.968145,25.4294118 C128.646169,25.0764706 129.609677,24.6529412 132.143347,24.1058824 C133.196069,23.8764706 134.302319,23.6823529 135.408569,23.5235294 L135.408569,28.5176471 L135.444254,28.5176471 Z" id="Shape"></path>
                        </g>
                    </g>
                </g>
            </g>
        </g>
    </g>
</svg>